<?xml version="1.0" standalone="no"?>
<!DOCTYPE svg PUBLIC "-//W3C//DTD SVG 20010904//EN"
 "http://www.w3.org/TR/2001/REC-SVG-20010904/DTD/svg10.dtd">
<svg version="1.0" xmlns="http://www.w3.org/2000/svg"
 width="500.000000pt" height="500.000000pt" viewBox="0 0 500.000000 500.000000"
 preserveAspectRatio="xMidYMid meet">

<g transform="translate(0.000000,500.000000) scale(0.100000,-0.100000)"
fill="#000000" stroke="none">
<path d="M2653 4575 c-108 -29 -208 -103 -260 -193 -30 -51 -63 -152 -63 -194
0 -28 -1 -29 -32 -21 -18 4 -76 8 -128 8 -87 -1 -100 -4 -163 -35 -42 -20 -84
-51 -108 -79 -39 -44 -40 -45 -67 -29 -47 28 -133 48 -202 48 -105 0 -206 -41
-285 -116 -19 -18 -53 -34 -95 -45 -188 -49 -334 -182 -385 -354 -12 -38 -14
-40 -73 -52 -175 -35 -287 -160 -299 -332 l-6 -79 -41 -12 c-63 -17 -127 -70
-161 -131 -24 -45 -29 -65 -29 -124 0 -59 5 -80 31 -130 17 -33 37 -82 43
-108 33 -124 152 -202 269 -176 41 9 46 8 95 -29 76 -57 147 -84 242 -90 93
-5 192 19 254 62 l35 24 115 -60 c528 -278 816 -452 846 -509 16 -33 18 -93 4
-204 -5 -44 -16 -195 -25 -335 -9 -140 -25 -298 -35 -351 -34 -178 -100 -310
-217 -431 -36 -37 -62 -71 -58 -77 4 -8 171 -11 536 -11 497 0 529 1 529 18
-1 10 -25 32 -58 52 -85 53 -192 164 -229 241 -57 115 -65 167 -70 451 -8 427
14 559 105 621 58 40 383 183 830 367 l142 59 65 -30 c135 -64 254 -62 389 5
l69 34 51 -52 c152 -156 407 -114 503 82 57 117 28 270 -68 357 -38 34 -40 38
-30 68 6 18 15 61 21 97 5 36 17 90 25 120 57 200 -106 410 -319 410 l-63 0
-6 66 c-16 201 -216 383 -423 384 l-41 0 -5 50 c-7 70 -46 125 -111 156 -29
13 -67 24 -84 24 -28 0 -33 4 -33 25 0 74 -74 192 -152 241 -55 35 -150 57
-212 50 l-51 -6 -23 49 c-81 176 -300 276 -489 226z m280 -63 c79 -39 146
-109 184 -193 l27 -58 77 6 c61 5 88 2 129 -13 105 -38 179 -130 189 -238 l6
-61 66 -6 c102 -8 159 -63 159 -151 0 -43 -2 -48 -23 -48 -14 0 -40 17 -66 44
-88 89 -221 115 -333 63 l-56 -25 -16 65 c-23 93 -53 148 -120 220 -107 115
-263 169 -418 145 -91 -14 -199 -67 -257 -126 l-44 -45 -35 27 c-34 26 -34 27
-29 88 12 150 128 289 276 331 27 7 83 12 132 10 74 -3 96 -8 152 -35z m69
-324 c134 -67 224 -191 248 -343 6 -38 12 -71 14 -72 2 -2 29 12 61 32 67 40
108 50 175 42 68 -8 122 -38 170 -96 39 -46 44 -49 69 -39 43 16 161 13 221
-7 166 -55 274 -193 288 -368 l5 -67 61 6 c116 12 233 -52 291 -157 22 -42 30
-70 33 -130 5 -87 -8 -109 -31 -51 -8 21 -35 60 -60 88 -97 108 -246 143 -381
89 -37 -15 -68 -25 -69 -23 -2 1 -10 24 -19 51 -83 234 -345 376 -597 322
l-82 -18 -17 24 c-26 38 -93 99 -138 125 -116 68 -278 86 -405 44 l-64 -21
-67 44 c-192 129 -431 139 -622 26 -35 -20 -53 -23 -155 -24 -106 -1 -121 -3
-173 -29 -75 -37 -139 -93 -169 -150 -24 -45 -25 -46 -74 -46 -71 0 -169 -26
-236 -61 -63 -34 -146 -113 -187 -178 l-27 -42 -110 -2 c-104 -2 -115 -4 -180
-36 -83 -41 -162 -116 -199 -189 -21 -42 -31 -52 -51 -52 -65 0 -152 -66 -182
-139 -16 -37 -25 -33 -42 18 -28 84 -4 179 63 241 34 33 110 69 147 70 13 0
16 12 15 73 -1 104 23 167 93 238 62 63 140 99 214 99 l43 0 22 69 c57 175
193 299 370 336 49 11 72 21 96 46 51 53 114 87 193 105 91 20 167 9 257 -39
56 -30 58 -30 68 -11 18 33 98 102 144 124 129 63 258 46 396 -52 14 -10 26
-4 75 44 104 98 184 129 329 125 94 -2 106 -5 176 -39z m-489 -473 c72 -19
127 -46 195 -97 57 -43 62 -43 142 -13 104 40 254 26 362 -32 46 -25 143 -117
165 -157 10 -19 12 -19 54 -2 65 26 200 32 276 13 169 -44 296 -163 348 -327
10 -30 19 -58 21 -62 2 -3 35 10 73 29 57 29 80 36 133 36 90 1 160 -27 223
-88 87 -85 116 -202 78 -322 l-17 -53 42 -36 c85 -72 121 -186 93 -291 -25
-91 -121 -176 -217 -192 -96 -15 -214 28 -261 94 -52 73 -41 71 -108 30 -85
-51 -152 -68 -244 -63 -158 9 -298 111 -350 256 -15 41 -20 45 -73 62 -31 10
-77 29 -102 44 -24 14 -47 26 -50 26 -3 0 -22 -32 -42 -70 -115 -220 -376
-305 -601 -195 -117 57 -218 180 -241 291 l-8 39 -56 3 c-54 3 -55 2 -69 -30
-20 -49 -86 -116 -144 -146 -43 -23 -62 -27 -140 -27 -101 0 -150 18 -215 81
l-35 34 -65 -27 c-84 -34 -213 -38 -308 -9 l-64 20 -26 -35 c-71 -90 -160
-145 -264 -159 -115 -17 -241 22 -320 97 l-36 35 -51 -12 c-98 -23 -188 17
-230 102 -53 110 1 236 118 276 19 7 44 12 56 12 18 0 29 13 51 57 69 143 227
233 384 220 36 -3 71 -7 79 -9 8 -2 26 19 43 47 48 81 124 152 208 193 67 32
85 37 171 40 l96 4 18 41 c56 127 234 216 377 189 60 -11 62 -11 119 23 122
71 280 94 412 60z m-174 -1173 c0 -31 -4 -76 -7 -99 l-7 -41 -38 44 -38 44 38
59 c21 33 41 57 45 54 5 -2 8 -30 7 -61z m80 -54 l33 -70 -6 -172 c-7 -213 1
-309 27 -314 23 -5 155 51 222 94 64 41 97 77 130 142 18 36 32 52 46 52 14 0
19 -7 19 -27 0 -16 4 -34 9 -42 15 -23 102 -8 178 30 75 38 124 98 158 193 27
75 73 146 91 139 20 -7 19 -11 -37 -221 -6 -23 -9 -45 -5 -49 3 -3 61 14 128
39 l123 46 32 -37 c18 -20 32 -39 33 -42 0 -4 -118 -56 -262 -117 -425 -179
-642 -275 -686 -304 -44 -29 -83 -88 -102 -153 -16 -56 -30 -545 -19 -685 10
-130 27 -195 72 -289 32 -65 122 -168 197 -224 l35 -27 -137 0 -137 0 -26 54
c-31 63 -55 147 -55 194 0 24 -4 32 -19 32 -25 0 -62 -111 -69 -207 l-5 -73
-83 0 -83 0 15 35 c25 60 52 195 59 292 10 135 -7 126 -93 -49 -39 -79 -90
-173 -114 -210 l-43 -68 -64 0 -64 0 45 47 c163 175 214 344 238 783 6 102 15
222 21 268 16 132 14 254 -5 290 -34 66 -231 186 -858 521 l-98 52 32 40 c22
27 37 38 47 33 9 -3 48 -12 86 -18 61 -11 84 -22 180 -88 141 -96 278 -177
408 -238 106 -51 258 -110 282 -110 9 0 16 17 21 47 14 94 -39 236 -120 321
l-31 33 25 19 25 20 30 -33 c17 -18 46 -52 66 -77 51 -63 59 -51 59 86 0 63 3
114 8 113 4 0 22 -32 41 -71z m-650 -12 c12 -13 50 -37 84 -52 52 -23 75 -28
142 -27 44 0 92 5 107 11 25 11 30 8 71 -41 65 -77 97 -147 104 -228 3 -38 4
-69 1 -69 -3 0 -57 21 -119 46 -153 61 -317 148 -474 252 l-130 85 74 19 c41
10 77 20 79 23 12 12 40 3 61 -19z m1658 -7 c40 -11 47 -17 64 -57 11 -25 16
-49 12 -53 -4 -4 -46 -22 -92 -39 -83 -30 -83 -30 -77 -8 3 13 13 56 23 96 9
39 18 72 20 72 2 0 25 -5 50 -11z m-802 -192 c28 -15 80 -34 117 -43 l67 -17
-24 -47 c-13 -26 -42 -63 -64 -82 -44 -38 -172 -104 -212 -110 l-24 -3 -3 165
c-2 91 0 180 3 198 l6 33 42 -34 c23 -19 65 -46 92 -60z m534 23 c-13 -23 -44
-54 -68 -71 -52 -34 -149 -65 -162 -52 -14 14 2 53 22 53 32 0 127 40 176 75
27 19 49 34 51 34 2 1 -7 -17 -19 -39z m-913 -1635 c-16 -90 -54 -205 -71
-211 -7 -3 -29 -4 -48 -2 l-36 3 35 55 c20 30 56 95 80 144 25 48 47 86 49 85
1 -2 -2 -35 -9 -74z m224 -100 c7 -22 21 -57 32 -77 l18 -38 -50 0 c-58 0 -58
0 -39 108 12 68 19 70 39 7z"/>
</g>
</svg>
